<svg width="150" height="32" viewBox="0 0 150 32" fill="none" xmlns="http://www.w3.org/2000/svg">
<g clip-path="url(#clip0_18:38)">
<path d="M19.3048 19.7231L18.355 12.9829C18.2024 11.8997 17.8932 10.8603 17.4491 9.89034C14.6971 9.83981 12.8926 8.21632 12.8926 8.21632L12.832 8.16754C14.0022 9.68234 14.7832 11.4931 15.0582 13.445L16.0081 20.1851C16.4346 23.2116 19.2403 25.3202 22.2749 24.8948L25.5716 24.4327C22.537 24.8581 19.7313 22.7495 19.3048 19.7231Z" fill="#F1E5F9"/>
<path d="M30.9453 24.7971L22.4292 25.9908C18.7936 26.5003 15.42 23.965 14.9091 20.3391L13.9592 13.5989C13.4842 10.2283 11.3601 7.34447 8.27708 5.88459C7.72342 5.62244 7.48769 4.96234 7.75054 4.41016C8.01339 3.85793 8.67522 3.62284 9.22901 3.88509C10.9889 4.71847 12.4925 5.93223 13.6536 7.40959C13.8873 7.60689 15.7581 9.09988 18.4274 8.72575L31.0818 6.95206C32.7618 6.71659 34.4247 7.25611 35.6442 8.43235C36.8637 9.6086 37.4599 11.248 37.2802 12.9305L36.6394 18.9252C36.3152 21.958 33.9737 24.3726 30.9453 24.7971ZM15.5145 10.7379C15.8158 11.554 16.0327 12.4087 16.157 13.2909L17.1068 20.0311C17.4475 22.4483 19.6965 24.1386 22.1203 23.7988L30.6363 22.6052C32.6553 22.3222 34.2163 20.7124 34.4324 18.6906L35.0731 12.6958C35.18 11.6963 34.8257 10.7223 34.1012 10.0235C33.3767 9.32463 32.3887 9.00411 31.3906 9.144L18.7363 10.9177C17.529 11.0869 16.4416 10.9746 15.5145 10.7379ZM22.3045 29.0817C22.1979 28.3251 21.4964 27.7979 20.7378 27.9042C19.9791 28.0106 19.4506 28.7101 19.5572 29.4667C19.6638 30.2233 20.3652 30.7505 21.1239 30.6442C21.8825 30.5378 22.4111 29.8383 22.3045 29.0817ZM33.2387 27.5491C33.1321 26.7925 32.4306 26.2653 31.672 26.3717C30.9134 26.478 30.3848 27.1776 30.4914 27.9342C30.598 28.6908 31.2995 29.2179 32.0581 29.1116C32.8167 29.0052 33.3453 28.3057 33.2387 27.5491Z" fill="#C490E4"/>
<path d="M32.0085 13.5278L19.7936 15.2399C19.1867 15.325 18.6256 14.9033 18.5403 14.298C18.455 13.6927 18.8778 13.1331 19.4848 13.048L31.6997 11.3359C32.3066 11.2508 32.8677 11.6726 32.953 12.2779C33.0383 12.8832 32.6155 13.4428 32.0085 13.5278Z" fill="#C490E4"/>
</g>
<rect width="11.0473" height="1.18059" rx="0.590293" transform="matrix(0.990319 -0.138806 0.139541 0.990216 0.789124 18.4544)" fill="#C490E4"/>
<rect y="22.1703" width="9.46914" height="1.18059" rx="0.590294" transform="rotate(-8 0 22.1703)" fill="#C490E4"/>
<rect width="6.31276" height="1.18059" rx="0.590293" transform="matrix(0.990319 -0.138807 0.139541 0.990216 3.94562 25.2738)" fill="#C490E4"/>
<path d="M1.14814 6.17442C1.10265 5.8516 1.3275 5.55321 1.65035 5.50796L4.9736 5.04216C5.29645 4.99691 5.59505 5.22193 5.64055 5.54475C5.68604 5.86757 5.46119 6.16595 5.13834 6.2112L1.81509 6.677C1.49224 6.72225 1.19363 6.49724 1.14814 6.17442Z" fill="#C490E4"/>
<path fill-rule="evenodd" clip-rule="evenodd" d="M89.7678 26.9723C89.7701 26.9755 89.7677 26.98 89.7637 26.98L89.763 26.9801C89.762 26.9802 89.7611 26.9807 89.7603 26.9814C89.5159 27.2105 89.1801 27.4138 88.7529 27.5912C88.3249 27.769 87.8778 27.8579 87.4116 27.8579C86.7849 27.8579 86.2308 27.732 85.7493 27.4801C85.2755 27.2208 84.9048 26.8689 84.6373 26.4244C84.3698 25.9725 84.2361 25.4614 84.2361 24.8909C84.2361 24.239 84.3774 23.6834 84.6602 23.2241C84.943 22.7573 85.3175 22.4017 85.7837 22.1573C86.2499 21.9054 86.7582 21.7794 87.3084 21.7794C87.8128 21.7794 88.2714 21.9017 88.6841 22.1462C89.0968 22.3832 89.4255 22.7129 89.67 23.1352C89.9146 23.5574 90.0369 24.0501 90.0369 24.6131L90.0301 24.9042C90.0275 25.0142 89.9373 25.1021 89.827 25.1021H85.6482C85.5256 25.1021 85.43 25.21 85.4576 25.3292C85.5548 25.7499 85.7629 26.0928 86.0818 26.3578C86.4639 26.6615 86.9454 26.8134 87.5262 26.8134C87.9466 26.8134 88.2867 26.7393 88.5465 26.5911C88.7238 26.485 88.8796 26.3824 89.0142 26.2832C89.11 26.2125 89.2473 26.2304 89.3157 26.3278L89.7678 26.9723ZM87.3084 22.8351C86.8575 22.8351 86.4639 22.9388 86.1276 23.1463C85.849 23.312 85.6491 23.5794 85.5279 23.9486C85.4876 24.0713 85.5848 24.1908 85.7141 24.1908H88.7552C88.7982 24.1908 88.8331 24.156 88.8331 24.113C88.8102 23.8612 88.7223 23.6389 88.5695 23.4463C88.4243 23.2537 88.2408 23.1055 88.0192 23.0018C87.7976 22.8907 87.5606 22.8351 87.3084 22.8351Z" fill="#14141C"/>
<path d="M49.0277 25.8577C48.8519 25.554 48.764 25.2095 48.764 24.8242C48.764 24.439 48.8481 24.0982 49.0163 23.8019C49.1844 23.4982 49.4137 23.2611 49.7041 23.0907C49.9945 22.9129 50.3193 22.824 50.6785 22.824C50.9843 22.824 51.2976 22.9166 51.6186 23.1018C51.8542 23.2293 52.0505 23.3757 52.2075 23.5412C52.2995 23.6382 52.4599 23.6456 52.5458 23.5433L52.9348 23.0802C52.9909 23.0135 52.9988 22.9178 52.9477 22.8471C52.7359 22.5543 52.4381 22.3132 52.0542 22.1239C51.6186 21.9017 51.1218 21.7906 50.5639 21.7906C50.0136 21.7906 49.5169 21.9239 49.0736 22.1906C48.6303 22.4573 48.2787 22.8203 48.0189 23.2796C47.7667 23.7315 47.6406 24.2464 47.6406 24.8242C47.6406 25.3947 47.7667 25.9096 48.0189 26.3689C48.2787 26.8282 48.6303 27.1912 49.0736 27.4579C49.5169 27.7246 50.0136 27.8579 50.5639 27.8579C50.9155 27.8579 51.2517 27.8061 51.5727 27.7023C51.8937 27.5912 52.1803 27.4505 52.4325 27.2801C52.6321 27.1394 52.7981 26.9918 52.9306 26.8373C52.9911 26.7667 52.9868 26.6635 52.927 26.5923L52.5302 26.12C52.4493 26.0236 52.3008 26.0235 52.2111 26.1118C52.0638 26.2568 51.8892 26.3981 51.6874 26.5355C51.4046 26.7282 51.0721 26.8245 50.69 26.8245C50.3537 26.8245 50.0366 26.7393 49.7385 26.5689C49.4481 26.3911 49.2111 26.154 49.0277 25.8577Z" fill="#14141C"/>
<path fill-rule="evenodd" clip-rule="evenodd" d="M60.0694 26.4022C60.3446 25.9429 60.4821 25.4169 60.4821 24.8242C60.4821 24.2316 60.3446 23.7093 60.0694 23.2574C59.8019 22.7981 59.4351 22.4388 58.9689 22.1795C58.5103 21.9202 57.9944 21.7906 57.4212 21.7906C56.848 21.7906 56.3283 21.9202 55.8621 22.1795C55.3959 22.4388 55.0252 22.7981 54.7501 23.2574C54.4826 23.7093 54.3488 24.2316 54.3488 24.8242C54.3488 25.4169 54.4826 25.9429 54.7501 26.4022C55.0252 26.8541 55.3959 27.2097 55.8621 27.469C56.3283 27.7283 56.848 27.8579 57.4212 27.8579C57.9944 27.8579 58.5103 27.7283 58.9689 27.469C59.4351 27.2097 59.8019 26.8541 60.0694 26.4022ZM59.0377 23.7908C59.2058 24.0871 59.286 24.4316 59.2784 24.8242C59.286 25.2095 59.2058 25.554 59.0377 25.8577C58.8772 26.154 58.6555 26.3874 58.3727 26.5578C58.09 26.7282 57.7728 26.8134 57.4212 26.8134C57.0696 26.8134 56.7487 26.7282 56.4582 26.5578C56.1755 26.3874 55.95 26.154 55.7819 25.8577C55.6214 25.554 55.5449 25.2095 55.5526 24.8242C55.5449 24.4316 55.6214 24.0871 55.7819 23.7908C55.95 23.4871 56.1755 23.2537 56.4582 23.0907C56.7487 22.9203 57.0696 22.8351 57.4212 22.8351C57.7728 22.8351 58.09 22.9203 58.3727 23.0907C58.6555 23.2537 58.8772 23.4871 59.0377 23.7908Z" fill="#14141C"/>
<path d="M65.4029 21.8128C65.8997 21.8128 66.2971 21.9239 66.5952 22.1462C66.7776 22.2777 66.9286 22.4397 67.0481 22.6323C67.1398 22.7803 67.3862 22.807 67.5042 22.679C67.5654 22.6125 67.6331 22.546 67.7072 22.4795C67.9135 22.2869 68.1543 22.1276 68.4294 22.0017C68.7046 21.8758 68.9988 21.8128 69.3122 21.8128C69.8319 21.8128 70.2369 21.9239 70.5273 22.1462C70.8178 22.361 71.0203 22.6536 71.1349 23.024C71.2572 23.387 71.3184 23.7945 71.3184 24.2464V27.5442C71.3184 27.6561 71.2274 27.7468 71.1153 27.7468H70.3292C70.217 27.7468 70.1261 27.6561 70.1261 27.5442V24.3131C70.1261 23.8834 70.042 23.5352 69.8739 23.2685C69.7058 23.0018 69.3886 22.8685 68.9224 22.8685C68.4791 22.8685 68.1122 23.0055 67.8218 23.2796C67.539 23.5463 67.3976 23.8723 67.3976 24.2575V27.5442C67.3976 27.6561 67.3067 27.7468 67.1946 27.7468H66.4085C66.2963 27.7468 66.2054 27.6561 66.2054 27.5442V24.2908C66.2054 23.876 66.1137 23.5352 65.9302 23.2685C65.7468 23.0018 65.4449 22.8685 65.0246 22.8685C64.7342 22.8685 64.4743 22.9314 64.245 23.0574C64.0157 23.1833 63.8361 23.35 63.7062 23.5574C63.5763 23.7575 63.5113 23.9834 63.5113 24.2353V27.5442C63.5113 27.6561 63.4204 27.7468 63.3082 27.7468H62.5222C62.41 27.7468 62.3191 27.6561 62.3191 27.5442V22.1154C62.3191 22.0035 62.41 21.9128 62.5222 21.9128H63.3082C63.4204 21.9128 63.5113 22.0035 63.5113 22.1154V22.1928C63.5113 22.3919 63.8014 22.4955 63.9551 22.3686C64.054 22.287 64.1621 22.2091 64.2794 22.135C64.6157 21.9202 64.9902 21.8128 65.4029 21.8128Z" fill="#14141C"/>
<path d="M77.7256 22.1462C77.4276 21.9239 77.0301 21.8128 76.5334 21.8128C76.1206 21.8128 75.7462 21.9202 75.4099 22.135C75.2925 22.2091 75.1844 22.287 75.0856 22.3686C74.9319 22.4955 74.6418 22.3919 74.6418 22.1928V22.1154C74.6418 22.0035 74.5509 21.9128 74.4387 21.9128H73.6526C73.5404 21.9128 73.4495 22.0035 73.4495 22.1154V27.5442C73.4495 27.6561 73.5404 27.7468 73.6526 27.7468H74.4387C74.5509 27.7468 74.6418 27.6561 74.6418 27.5442V24.2353C74.6418 23.9834 74.7067 23.7575 74.8367 23.5574C74.9666 23.35 75.1462 23.1833 75.3755 23.0574C75.6048 22.9314 75.8646 22.8685 76.155 22.8685C76.5754 22.8685 76.8773 23.0018 77.0607 23.2685C77.2441 23.5352 77.3358 23.876 77.3358 24.2908V27.5442C77.3358 27.6561 77.4268 27.7468 77.5389 27.7468H78.325C78.4372 27.7468 78.5281 27.6561 78.5281 27.5442V24.2575C78.5281 23.8723 78.6695 23.5463 78.9523 23.2796C79.2427 23.0055 79.6096 22.8685 80.0528 22.8685C80.519 22.8685 80.8362 23.0018 81.0043 23.2685C81.1725 23.5352 81.2566 23.8834 81.2566 24.3131V27.5442C81.2566 27.6561 81.3475 27.7468 81.4597 27.7468H82.2457C82.3579 27.7468 82.4488 27.6561 82.4488 27.5442V24.2464C82.4488 23.7945 82.3877 23.387 82.2654 23.024C82.1508 22.6536 81.9482 22.361 81.6578 22.1462C81.3674 21.9239 80.9623 21.8128 80.4426 21.8128C80.1293 21.8128 79.835 21.8758 79.5599 22.0017C79.2847 22.1276 79.044 22.2869 78.8376 22.4795C78.7636 22.546 78.6959 22.6125 78.6346 22.679C78.5166 22.807 78.2703 22.7803 78.1785 22.6323C78.0591 22.4397 77.9081 22.2777 77.7256 22.1462Z" fill="#14141C"/>
<path d="M95.0264 23.0676C95.1524 23.0958 95.2931 23.0286 95.3242 22.9035L95.5337 22.061C95.5568 21.9681 95.5117 21.8704 95.4191 21.8453C95.2847 21.8088 95.1182 21.7906 94.9199 21.7906C94.5454 21.7906 94.1862 21.9054 93.8422 22.135C93.7657 22.1873 93.6935 22.2429 93.6256 22.3017C93.463 22.4427 93.0856 22.3291 93.0856 22.1141C93.0856 22.0029 92.9952 21.9128 92.8838 21.9128H92.0964C91.9843 21.9128 91.8933 22.0035 91.8933 22.1154V27.5442C91.8933 27.6561 91.9843 27.7468 92.0964 27.7468H92.8825C92.9947 27.7468 93.0856 27.6561 93.0856 27.5442V24.5242C93.0856 24.2131 93.162 23.9464 93.3149 23.7241C93.4754 23.4945 93.6741 23.3204 93.911 23.2018C94.1479 23.0759 94.3887 23.0129 94.6333 23.0129C94.7555 23.0129 94.8702 23.0277 94.9772 23.0574C94.994 23.0606 95.0104 23.0641 95.0264 23.0676Z" fill="#14141C"/>
<path d="M97.5894 24.8242C97.5894 25.2095 97.6773 25.554 97.853 25.8577C98.0365 26.154 98.2734 26.3911 98.5638 26.5689C98.8619 26.7393 99.1791 26.8245 99.5153 26.8245C99.8975 26.8245 100.23 26.7282 100.513 26.5355C100.715 26.3981 100.889 26.2568 101.036 26.1118C101.126 26.0235 101.275 26.0236 101.356 26.12L101.752 26.5923C101.812 26.6635 101.816 26.7667 101.756 26.8373C101.623 26.9918 101.457 27.1394 101.258 27.2801C101.006 27.4505 100.719 27.5912 100.398 27.7023C100.077 27.8061 99.7408 27.8579 99.3892 27.8579C98.839 27.8579 98.3422 27.7246 97.8989 27.4579C97.4556 27.1912 97.1041 26.8282 96.8442 26.3689C96.592 25.9096 96.4659 25.3947 96.4659 24.8242C96.4659 24.2464 96.592 23.7315 96.8442 23.2796C97.1041 22.8203 97.4556 22.4573 97.8989 22.1906C98.3422 21.9239 98.839 21.7906 99.3892 21.7906C99.9472 21.7906 100.444 21.9017 100.88 22.1239C101.263 22.3132 101.561 22.5543 101.773 22.8471C101.824 22.9178 101.816 23.0135 101.76 23.0802L101.371 23.5433C101.285 23.6456 101.125 23.6382 101.033 23.5412C100.876 23.3757 100.679 23.2293 100.444 23.1018C100.123 22.9166 99.8096 22.824 99.5039 22.824C99.1447 22.824 98.8199 22.9129 98.5294 23.0907C98.239 23.2611 98.0097 23.4982 97.8416 23.8019C97.6734 24.0982 97.5894 24.439 97.5894 24.8242Z" fill="#14141C"/>
<path fill-rule="evenodd" clip-rule="evenodd" d="M108.702 26.98C108.706 26.98 108.708 26.9755 108.706 26.9723L108.254 26.3278C108.185 26.2304 108.048 26.2125 107.952 26.2832C107.818 26.3824 107.662 26.485 107.485 26.5911C107.225 26.7393 106.885 26.8134 106.464 26.8134C105.884 26.8134 105.402 26.6615 105.02 26.3578C104.701 26.0928 104.493 25.7499 104.396 25.3292C104.368 25.21 104.464 25.1021 104.586 25.1021H108.765C108.875 25.1021 108.966 25.0142 108.968 24.9042L108.975 24.6131C108.975 24.0501 108.853 23.5574 108.608 23.1352C108.364 22.7129 108.035 22.3832 107.622 22.1462C107.21 21.9017 106.751 21.7794 106.247 21.7794C105.696 21.7794 105.188 21.9054 104.722 22.1573C104.256 22.4017 103.881 22.7573 103.598 23.2241C103.316 23.6834 103.174 24.239 103.174 24.8909C103.174 25.4614 103.308 25.9725 103.575 26.4244C103.843 26.8689 104.214 27.2208 104.687 27.4801C105.169 27.732 105.723 27.8579 106.35 27.8579C106.816 27.8579 107.263 27.769 107.691 27.5912C108.118 27.4138 108.454 27.2105 108.698 26.9814C108.699 26.9805 108.701 26.98 108.702 26.98ZM105.066 23.1463C105.402 22.9388 105.796 22.8351 106.247 22.8351C106.499 22.8351 106.736 22.8907 106.957 23.0018C107.179 23.1055 107.362 23.2537 107.508 23.4463C107.66 23.6389 107.748 23.8612 107.771 24.113C107.771 24.156 107.736 24.1908 107.693 24.1908H104.652C104.523 24.1908 104.426 24.0713 104.466 23.9486C104.587 23.5794 104.787 23.312 105.066 23.1463Z" fill="#14141C"/>
<path fill-rule="evenodd" clip-rule="evenodd" d="M55.8437 10.9317L55.8466 10.9275C56.1219 10.5307 56.2596 10.084 56.2596 9.59856C56.2596 8.74559 55.94 8.05069 55.2777 7.57604C54.6419 7.11417 53.7383 6.91536 52.6328 6.91536H48.0508C47.8243 6.91536 47.6406 7.09649 47.6406 7.31994V16.3826C47.6406 16.6061 47.8243 16.7872 48.0508 16.7872H52.9085C53.3381 16.7872 53.7671 16.7458 54.1951 16.6632L54.2035 16.6615C54.6477 16.5662 55.058 16.408 55.4316 16.185C55.8249 15.9503 56.1395 15.6288 56.3738 15.2281C56.6308 14.8041 56.7454 14.2919 56.7454 13.7156C56.7454 13.2321 56.6475 12.7937 56.431 12.4183C56.2354 12.0642 55.9704 11.7715 55.638 11.5455C55.5613 11.492 55.4829 11.4415 55.4026 11.3941C55.5717 11.2598 55.7195 11.106 55.8437 10.9317ZM53.6915 9.29761C53.6932 9.29847 53.6949 9.29931 53.6966 9.30015C53.8089 9.35556 53.8764 9.42157 53.919 9.49399C53.9628 9.56857 53.9949 9.6752 53.9949 9.8316C53.9949 10.0685 53.9042 10.2343 53.6884 10.3692C53.4359 10.5236 53.1351 10.6102 52.7729 10.6181H49.879V9.07098H52.6197C53.0696 9.07098 53.4187 9.1528 53.6855 9.2945C53.6875 9.29556 53.6895 9.29659 53.6915 9.29761ZM49.879 12.7867V14.6316H52.9085C53.4365 14.6316 53.8298 14.5328 54.1153 14.3656C54.36 14.2193 54.4807 14.0144 54.4807 13.6897C54.4807 13.4421 54.4073 13.2964 54.2986 13.1982C54.1456 13.0599 53.9468 12.9548 53.6886 12.8911C53.4051 12.8212 53.1234 12.7867 52.8429 12.7867H49.879Z" fill="#14141C"/>
<path fill-rule="evenodd" clip-rule="evenodd" d="M69.2851 13.8546L69.286 13.8525C69.5639 13.2288 69.7014 12.5602 69.7014 11.8513C69.7014 11.1428 69.5641 10.4781 69.2856 9.86203C69.0091 9.24186 68.6173 8.7002 68.1124 8.23985C67.6075 7.77959 67.0148 7.42519 66.3391 7.17501C65.6565 6.91361 64.9103 6.78589 64.1052 6.78589C63.3079 6.78589 62.5622 6.91396 61.8722 7.1747C61.1962 7.4249 60.6032 7.7794 60.0981 8.23985L60.0953 8.24248C59.6 8.70272 59.2138 9.24358 58.9381 9.86204C58.6595 10.4781 58.5222 11.1428 58.5222 11.8513C58.5222 12.5602 58.6597 13.2288 58.9376 13.8525L58.9385 13.8546C59.2146 14.4646 59.6008 15.0006 60.0953 15.4601L60.0981 15.4627C60.6024 15.9225 61.1943 16.2808 61.8691 16.5396L61.8754 16.542C62.5645 16.7933 63.309 16.9167 64.1052 16.9167C64.9095 16.9167 65.6549 16.7935 66.3368 16.5414L66.3414 16.5396C67.0162 16.2808 67.6081 15.9225 68.1124 15.4627C68.6164 15.0031 69.0083 14.4663 69.2851 13.8546ZM67.0126 10.3816L67.0171 10.3885C67.2945 10.81 67.4367 11.2933 67.4367 11.8513C67.4367 12.3994 67.2951 12.8843 67.0153 13.3168L67.0126 13.321C66.7393 13.7552 66.3545 14.1039 65.8461 14.3664C65.3526 14.6171 64.7758 14.7481 64.1052 14.7481C63.4256 14.7481 62.845 14.6169 62.3524 14.367C61.8521 14.1044 61.4707 13.7594 61.1971 13.3327C60.9257 12.9009 60.7869 12.4109 60.7869 11.8513C60.7869 11.2911 60.9259 10.8062 61.1962 10.3843L61.1979 10.3816C61.4717 9.94659 61.8522 9.60287 62.3502 9.34966L62.3547 9.34736C62.8468 9.08956 63.4264 8.95446 64.1052 8.95446C64.7744 8.95446 65.3499 9.0892 65.8427 9.34736L65.8495 9.35082C66.3562 9.6045 66.7398 9.94817 67.0126 10.3816Z" fill="#14141C"/>
<path d="M81.4295 7.30699C81.4295 7.08355 81.2458 6.90241 81.0192 6.90241H79.6669C79.4403 6.90241 79.2566 7.08355 79.2566 7.30699V12.2785C79.2566 12.7651 79.1419 13.178 78.9231 13.5302L78.92 13.5354C78.7044 13.8946 78.4087 14.1762 78.0253 14.3837L78.0223 14.3854C77.6528 14.5894 77.2244 14.6963 76.7261 14.6963C76.2683 14.6963 75.857 14.5919 75.4839 14.3863C75.1168 14.1791 74.8215 13.8957 74.5946 13.5302C74.3759 13.178 74.2611 12.7651 74.2611 12.2785V7.30699C74.2611 7.08355 74.0774 6.90241 73.8508 6.90241H72.4329C72.2063 6.90241 72.0227 7.08355 72.0227 7.30699V12.3562C72.0227 13.2048 72.2172 13.9784 72.6147 14.6667L72.6168 14.6704C73.0214 15.3543 73.5778 15.8933 74.2801 16.2823L74.2822 16.2834C74.9992 16.6751 75.8178 16.8649 76.7261 16.8649C77.6416 16.8649 78.4611 16.6757 79.1709 16.2829C79.8825 15.8938 80.4407 15.3538 80.8374 14.6667C81.2349 13.9784 81.4295 13.2048 81.4295 12.3562V7.30699Z" fill="#14141C"/>
<path fill-rule="evenodd" clip-rule="evenodd" d="M92.6194 6.91536C92.3928 6.91536 92.2092 7.09649 92.2092 7.31994V10.2977C92.2092 10.7405 92.2136 11.2132 92.2223 11.7158L92.2225 11.7231C92.2401 12.2174 92.2621 12.7117 92.2885 13.2061L92.289 13.2136C92.2926 13.2632 92.2963 13.3124 92.3001 13.3615L86.517 7.04872C86.4392 6.96381 86.3286 6.91536 86.2126 6.91536H84.8603C84.6337 6.91536 84.45 7.09649 84.45 7.31994V16.3826C84.45 16.6061 84.6337 16.7872 84.8603 16.7872H86.2782C86.5048 16.7872 86.6885 16.6061 86.6885 16.3826V12.6151C86.6885 12.0501 86.6616 11.4892 86.6079 10.9326L86.5642 10.4796L92.3576 16.6573C92.4353 16.7401 92.5444 16.7872 92.6588 16.7872H94.0373C94.2639 16.7872 94.4476 16.6061 94.4476 16.3826V7.31994C94.4476 7.09649 94.2639 6.91536 94.0373 6.91536H92.6194Z" fill="#14141C"/>
<path fill-rule="evenodd" clip-rule="evenodd" d="M106.963 14.3198L106.964 14.318C107.364 13.5658 107.562 12.7412 107.562 11.8513C107.562 11.1931 107.45 10.5669 107.222 9.97576C107.001 9.37227 106.665 8.84122 106.214 8.38648C105.766 7.91657 105.207 7.55798 104.546 7.30623C103.884 7.04202 103.131 6.91536 102.294 6.91536H98.0276C97.801 6.91536 97.6173 7.09649 97.6173 7.31994V16.3826C97.6173 16.6061 97.801 16.7872 98.0276 16.7872H102.294C103.414 16.7872 104.381 16.5747 105.177 16.1252L105.18 16.1233C105.959 15.6736 106.557 15.0721 106.963 14.3198ZM103.982 14.2573L103.979 14.2588C103.563 14.4965 102.989 14.6316 102.229 14.6316H99.8558V9.07098H102.229C102.987 9.07098 103.559 9.20971 103.975 9.45406L103.978 9.45562C104.421 9.71192 104.733 10.0424 104.931 10.4475C105.139 10.8727 105.245 11.3386 105.245 11.8513C105.245 12.3831 105.138 12.8574 104.931 13.281C104.734 13.6848 104.423 14.0099 103.982 14.2573Z" fill="#14141C"/>
<path d="M117.754 15.0362C117.754 14.8127 117.57 14.6316 117.344 14.6316H112.279V7.31994C112.279 7.09649 112.096 6.91536 111.869 6.91536H110.451C110.225 6.91536 110.041 7.09649 110.041 7.31994V16.3826C110.041 16.6061 110.225 16.7872 110.451 16.7872H117.344C117.57 16.7872 117.754 16.6061 117.754 16.3826V15.0362Z" fill="#14141C"/>
<path d="M120.657 6.91536C120.43 6.91536 120.247 7.09649 120.247 7.31994V16.3826C120.247 16.6061 120.43 16.7872 120.657 16.7872H127.615C127.842 16.7872 128.025 16.6061 128.025 16.3826V15.0362C128.025 14.8127 127.842 14.6316 127.615 14.6316H122.485V12.8126H126.893C127.12 12.8126 127.303 12.6314 127.303 12.408V11.0615C127.303 10.8381 127.12 10.657 126.893 10.657H122.485V9.07098H127.615C127.842 9.07098 128.025 8.88984 128.025 8.6664V7.31994C128.025 7.09649 127.842 6.91536 127.615 6.91536H120.657Z" fill="#14141C"/>
<path d="M131.855 13.3442C131.775 13.2545 131.658 13.2045 131.537 13.2076C131.416 13.2107 131.302 13.2665 131.226 13.3602L130.307 14.4995C130.186 14.6496 130.189 14.863 130.313 15.0104C130.878 15.6788 131.545 16.1702 132.314 16.4734C133.07 16.7714 133.906 16.9167 134.817 16.9167C135.661 16.9167 136.415 16.7946 137.069 16.5386L137.073 16.5366C137.725 16.2721 138.25 15.8942 138.626 15.3934C139.007 14.8856 139.192 14.29 139.192 13.625C139.192 13.1357 139.07 12.6952 138.801 12.3289C138.558 11.9871 138.232 11.7147 137.834 11.5079C137.449 11.2995 137.017 11.1417 136.543 11.0313C136.091 10.9156 135.619 10.8226 135.125 10.7518L135.123 10.7515C134.64 10.6846 134.223 10.602 133.869 10.5051C133.545 10.4056 133.317 10.2843 133.164 10.1547C133.058 10.0521 132.995 9.9142 132.995 9.70213C132.995 9.57815 133.026 9.48246 133.082 9.40115C133.14 9.31644 133.239 9.22657 133.404 9.14176L133.407 9.14031C133.762 8.95475 134.221 8.85089 134.803 8.85089C135.358 8.85089 135.827 8.9638 136.221 9.17668C136.637 9.40098 136.977 9.68797 137.247 10.0377C137.32 10.1322 137.431 10.1903 137.551 10.1967C137.672 10.2032 137.789 10.1573 137.871 10.0712L138.843 9.06138C138.978 8.92099 138.993 8.70594 138.879 8.54829C138.466 7.97623 137.913 7.53928 137.23 7.23592C136.544 6.93091 135.744 6.78589 134.843 6.78589C134.109 6.78589 133.429 6.90037 132.808 7.13555C132.184 7.36318 131.667 7.70174 131.274 8.15877L131.273 8.15938C130.874 8.62609 130.678 9.18652 130.678 9.81865C130.678 10.7422 131.045 11.4825 131.79 11.9793L131.793 11.9808C132.49 12.4392 133.403 12.7382 134.507 12.8989L134.509 12.8991C135.354 13.0182 135.984 13.1639 136.414 13.3288L136.416 13.3297C136.608 13.4019 136.718 13.4863 136.78 13.5653C136.838 13.6395 136.875 13.7341 136.875 13.871C136.875 14.0643 136.808 14.2126 136.661 14.3426C136.479 14.4947 136.234 14.6212 135.912 14.7119C135.582 14.8048 135.239 14.8517 134.882 14.8517C134.192 14.8517 133.641 14.7197 133.21 14.4787C132.747 14.2106 132.295 13.8351 131.855 13.3442Z" fill="#14141C"/>
<path d="M142.663 13.3442C142.583 13.2545 142.466 13.2045 142.345 13.2076C142.224 13.2107 142.11 13.2665 142.035 13.3602L141.116 14.4995C140.995 14.6496 140.997 14.863 141.122 15.0104C141.686 15.6788 142.353 16.1702 143.122 16.4734C143.878 16.7714 144.714 16.9167 145.625 16.9167C146.469 16.9167 147.223 16.7946 147.877 16.5386L147.882 16.5366C148.533 16.2721 149.058 15.8942 149.434 15.3934C149.815 14.8856 150 14.29 150 13.625C150 13.1357 149.878 12.6952 149.609 12.3289C149.367 11.9871 149.04 11.7147 148.642 11.5079C148.257 11.2995 147.826 11.1417 147.351 11.0313C146.9 10.9156 146.427 10.8226 145.933 10.7518L145.931 10.7515C145.448 10.6846 145.031 10.602 144.677 10.5051C144.353 10.4056 144.125 10.2843 143.972 10.1547C143.867 10.0521 143.803 9.9142 143.803 9.70213C143.803 9.57815 143.835 9.48246 143.89 9.40115C143.948 9.31644 144.047 9.22657 144.213 9.14176L144.215 9.14031C144.57 8.95475 145.029 8.85089 145.612 8.85089C146.167 8.85089 146.635 8.9638 147.03 9.17668C147.445 9.40098 147.785 9.68797 148.055 10.0377C148.128 10.1322 148.239 10.1903 148.36 10.1967C148.48 10.2032 148.597 10.1573 148.68 10.0712L149.651 9.06138C149.786 8.92099 149.801 8.70594 149.688 8.54829C149.275 7.97623 148.721 7.53928 148.038 7.23592C147.352 6.93091 146.552 6.78589 145.651 6.78589C144.917 6.78589 144.237 6.90037 143.616 7.13555C142.992 7.36318 142.475 7.70174 142.082 8.15877L142.082 8.15938C141.682 8.62609 141.486 9.18652 141.486 9.81865C141.486 10.7422 141.853 11.4825 142.599 11.9793L142.601 11.9808C143.298 12.4392 144.211 12.7382 145.315 12.8989L145.317 12.8991C146.163 13.0182 146.792 13.1639 147.222 13.3288L147.225 13.3297C147.416 13.4019 147.526 13.4863 147.588 13.5653C147.646 13.6395 147.683 13.7341 147.683 13.871C147.683 14.0643 147.616 14.2126 147.469 14.3426C147.287 14.4947 147.042 14.6212 146.72 14.7119C146.39 14.8048 146.047 14.8517 145.69 14.8517C145 14.8517 144.449 14.7197 144.018 14.4787C143.555 14.2106 143.103 13.8351 142.663 13.3442Z" fill="#14141C"/>
<defs>
<clipPath id="clip0_18:38">
<rect width="28.4074" height="28.3341" fill="white" transform="matrix(0.990319 -0.138806 0.139541 0.990216 7.49683 3.94312)"/>
</clipPath>
</defs>
</svg>
