<?xml version="1.0" standalone="no"?>
<!DOCTYPE svg PUBLIC "-//W3C//DTD SVG 20010904//EN"
 "http://www.w3.org/TR/2001/REC-SVG-20010904/DTD/svg10.dtd">
<svg version="1.0" xmlns="http://www.w3.org/2000/svg"
 width="1040.000000pt" height="1040.000000pt" viewBox="0 0 1040.000000 1040.000000"
 preserveAspectRatio="xMidYMid meet">
<metadata>
Created by potrace 1.14, written by Peter Selinger 2001-2017
</metadata>
<g transform="translate(0.000000,1040.000000) scale(0.100000,-0.100000)"
fill="#000000" stroke="none">
<path d="M2185 8363 c-49 -14 -112 -54 -128 -79 -4 -7 -14 -20 -23 -28 -8 -9
-23 -40 -34 -70 -35 -104 -8 -224 68 -301 16 -16 81 -56 143 -89 109 -56 228
-124 239 -136 3 -4 23 -17 45 -30 39 -24 64 -43 90 -67 8 -7 16 -13 20 -13 6
0 102 -78 165 -134 71 -64 230 -229 266 -276 21 -28 42 -50 46 -50 4 0 8 -7 8
-15 0 -8 4 -15 8 -15 4 0 21 -21 38 -47 16 -25 35 -52 42 -59 48 -49 251 -428
282 -529 7 -22 16 -45 21 -51 5 -6 6 -14 2 -17 -3 -4 0 -7 7 -7 7 0 11 -3 7
-6 -3 -3 3 -29 13 -58 33 -88 110 -411 112 -466 0 -8 4 -46 10 -85 5 -38 11
-86 14 -105 2 -19 6 -46 9 -60 2 -14 7 -47 11 -75 5 -47 7 -61 18 -132 6 -40
24 -170 31 -223 3 -25 8 -58 12 -75 3 -16 7 -47 9 -70 6 -57 18 -142 28 -192
3 -12 7 -48 11 -80 7 -65 14 -116 20 -153 3 -14 7 -43 10 -65 3 -22 8 -56 10
-75 3 -19 7 -52 10 -72 7 -54 14 -100 19 -123 2 -11 7 -47 10 -80 8 -62 12
-92 21 -135 3 -14 8 -41 11 -60 35 -199 165 -496 278 -641 12 -15 30 -39 41
-55 61 -86 289 -314 315 -314 5 0 10 -4 12 -8 6 -15 158 -113 251 -161 92 -48
259 -116 310 -125 15 -2 31 -7 36 -10 19 -12 162 -39 281 -52 104 -12 337 -7
425 10 27 5 91 14 145 21 25 4 56 8 70 10 46 7 107 16 151 21 24 3 55 7 69 9
14 2 45 6 70 10 44 6 85 12 125 19 11 2 47 7 80 11 61 7 94 12 131 19 11 2 47
7 80 11 92 10 117 14 139 18 11 3 49 8 85 13 36 4 67 8 70 9 3 1 30 5 60 9 30
4 66 9 80 11 14 2 45 6 70 10 25 3 58 8 74 11 15 4 45 8 65 9 20 2 54 7 76 10
50 8 102 15 135 19 60 8 137 19 155 23 11 2 36 6 55 8 82 10 117 14 145 19 17
3 48 8 70 11 50 6 95 14 117 21 9 3 26 7 39 9 120 23 438 153 461 189 4 6 8 8
8 4 0 -9 144 89 215 146 77 62 217 207 274 283 28 37 55 73 61 80 15 18 65
104 111 190 37 70 122 290 133 344 3 13 8 35 11 49 19 79 40 228 50 350 2 30
6 69 9 85 2 17 7 61 10 98 4 37 8 82 11 100 3 18 7 57 10 87 3 30 7 73 10 95
2 22 7 65 10 95 3 30 8 75 11 100 3 25 7 65 9 90 2 25 6 68 10 95 11 99 14
131 20 180 3 28 7 68 9 90 8 82 18 171 21 194 9 57 18 193 18 271 0 95 -29
330 -43 348 -2 1 -3 5 -4 10 -2 4 -8 27 -16 52 -7 25 -14 50 -16 55 -1 6 -11
31 -23 58 -11 26 -20 48 -19 50 3 3 -35 70 -51 90 -8 9 -11 17 -8 17 10 0 -87
142 -143 209 -67 80 -147 160 -155 153 -3 -3 -5 0 -5 6 0 11 -152 132 -166
132 -4 0 -15 6 -23 14 -34 29 -223 121 -271 131 -8 2 -42 13 -75 24 -58 19
-148 38 -230 48 -90 12 -320 5 -410 -11 -17 -3 -55 -8 -85 -12 -30 -3 -64 -8
-75 -10 -11 -2 -38 -6 -60 -9 -22 -3 -55 -8 -72 -10 -18 -3 -48 -7 -65 -10
-18 -2 -53 -7 -78 -11 -25 -3 -56 -8 -70 -9 -53 -6 -116 -15 -140 -20 -14 -3
-45 -7 -70 -10 -25 -2 -55 -6 -67 -9 -12 -3 -46 -7 -75 -10 -29 -4 -62 -8 -73
-10 -30 -6 -95 -15 -145 -21 -53 -6 -117 -16 -145 -21 -11 -2 -46 -6 -78 -9
-31 -2 -61 -6 -65 -9 -4 -2 -36 -7 -72 -11 -36 -4 -67 -8 -70 -10 -3 -1 -32
-6 -65 -10 -33 -3 -76 -10 -95 -14 -19 -4 -47 -7 -62 -6 -16 1 -28 -2 -28 -7
0 -5 -4 -7 -9 -4 -5 3 -33 2 -62 -4 -30 -5 -76 -12 -104 -16 -27 -3 -59 -8
-70 -9 -11 -2 -43 -6 -71 -9 -28 -4 -61 -9 -75 -11 -27 -6 -49 -9 -174 -25
-49 -6 -101 -14 -115 -16 -14 -3 -45 -7 -70 -10 -25 -2 -70 -9 -100 -14 -30
-5 -77 -12 -105 -15 -27 -3 -57 -8 -65 -10 -13 -3 -83 -12 -155 -20 -11 -1
-38 -5 -60 -8 -22 -4 -58 -9 -80 -12 -23 -3 -50 -7 -61 -9 -128 -25 -346 -34
-489 -21 -148 13 -358 70 -500 135 -36 16 -67 30 -70 30 -10 0 -163 94 -221
135 -33 24 -94 84 -135 134 -75 92 -294 312 -383 386 -75 62 -75 62 -176 135
-52 39 -100 74 -107 80 -7 5 -15 10 -18 10 -3 0 -32 17 -63 38 -64 44 -180
108 -294 164 -90 45 -165 54 -243 31z m6185 -1383 c0 -5 6 -7 14 -4 13 5 123
-19 161 -35 223 -98 354 -211 453 -394 68 -123 97 -248 97 -407 -1 -76 -4
-114 -21 -265 -3 -22 -6 -58 -8 -80 -2 -22 -6 -65 -10 -95 -4 -30 -9 -73 -11
-95 -9 -100 -15 -156 -20 -192 -6 -51 -17 -160 -20 -203 -2 -19 -4 -35 -5 -35
-1 0 -3 -18 -5 -40 -2 -22 -5 -60 -8 -85 -3 -25 -9 -76 -12 -115 -4 -38 -9
-79 -11 -90 -2 -11 -7 -54 -10 -95 -10 -109 -11 -125 -13 -125 -1 0 -4 -22 -6
-50 -24 -357 -185 -662 -460 -873 -38 -29 -138 -94 -145 -94 -3 0 -22 -9 -42
-19 -87 -45 -229 -89 -328 -104 -25 -3 -58 -8 -75 -11 -48 -7 -107 -15 -145
-19 -19 -2 -35 -4 -35 -5 0 -1 -13 -3 -30 -5 -16 -2 -43 -6 -60 -9 -16 -2 -66
-10 -110 -16 -44 -5 -96 -13 -115 -15 -19 -3 -55 -8 -80 -11 -25 -2 -52 -7
-60 -9 -16 -4 -106 -16 -155 -21 -16 -1 -30 -3 -30 -4 0 -1 -21 -5 -95 -14
-25 -3 -56 -8 -70 -11 -14 -2 -45 -7 -70 -9 -25 -3 -58 -8 -75 -11 -16 -2 -48
-7 -70 -9 -22 -3 -53 -7 -70 -10 -27 -4 -61 -9 -150 -22 -16 -3 -48 -7 -70 -9
-22 -3 -51 -7 -65 -9 -14 -3 -45 -8 -70 -11 -45 -6 -174 -23 -220 -30 -81 -12
-129 -19 -220 -30 -30 -3 -62 -8 -70 -10 -12 -4 -89 41 -188 110 -85 59 -248
229 -309 321 -7 11 -24 37 -39 58 -28 42 -114 209 -114 221 0 4 -6 21 -14 38
-14 32 -32 86 -41 123 -19 77 -36 161 -40 195 -3 23 -7 53 -9 68 -3 14 -10 62
-16 106 -6 44 -13 91 -15 105 -10 65 -16 108 -19 145 -2 22 -7 51 -10 65 -6
28 -14 89 -22 164 -3 27 -7 52 -9 56 -2 3 -7 38 -10 76 -4 38 -9 72 -11 75 -1
3 -6 28 -9 55 -7 68 -12 104 -19 139 -3 17 -8 50 -10 75 -3 25 -7 54 -10 65
-2 11 -7 49 -10 85 l-7 65 18 -35 c27 -54 96 -113 153 -134 48 -17 160 -29
160 -16 0 3 12 5 28 6 15 0 47 4 72 8 25 4 56 9 70 10 14 2 48 7 75 11 28 3
64 8 80 11 17 2 46 6 65 8 19 3 55 9 80 12 25 4 56 8 70 10 14 3 43 6 65 8 22
2 54 7 70 9 17 3 49 8 71 12 23 3 59 8 80 11 22 3 50 7 64 9 75 10 121 17 174
25 32 5 63 7 67 4 5 -3 9 -2 9 3 0 4 12 8 28 9 15 0 47 4 72 8 25 4 56 9 70
11 62 7 135 17 153 21 11 2 44 6 74 9 30 2 57 6 61 9 4 2 34 7 67 10 33 4 87
11 120 16 33 5 83 12 110 15 28 4 57 8 65 10 8 2 40 7 70 10 30 3 62 8 70 10
8 2 38 7 65 10 28 3 64 7 80 10 17 2 50 7 75 10 25 4 56 8 70 11 14 2 61 8
105 14 44 6 91 13 105 15 14 2 43 7 65 10 22 3 55 7 73 10 18 2 52 7 75 10 23
3 53 8 67 10 14 2 50 7 80 10 30 3 62 8 70 10 8 2 39 7 68 10 185 20 294 127
296 290 0 84 -23 144 -82 204 -70 72 -164 97 -292 77 -25 -4 -60 -9 -79 -11
-19 -2 -50 -7 -70 -10 -66 -11 -96 -16 -141 -20 -25 -2 -56 -6 -69 -9 -12 -3
-42 -7 -65 -10 -22 -3 -106 -14 -186 -26 -80 -11 -158 -22 -175 -25 -16 -2
-52 -7 -80 -11 -27 -3 -59 -8 -69 -10 -11 -2 -56 -8 -100 -14 -45 -6 -97 -13
-116 -16 -75 -11 -106 -15 -140 -19 -19 -2 -46 -6 -60 -9 -14 -2 -47 -8 -75
-11 -27 -4 -61 -9 -75 -11 -14 -2 -43 -6 -65 -9 -22 -3 -53 -7 -70 -10 -16 -2
-55 -7 -85 -10 -30 -3 -62 -8 -70 -10 -8 -2 -35 -7 -59 -10 -23 -3 -55 -7 -70
-9 -14 -3 -50 -8 -80 -11 -30 -4 -61 -8 -70 -10 -9 -1 -41 -6 -71 -10 -30 -4
-64 -9 -75 -11 -11 -2 -39 -6 -62 -9 -23 -3 -58 -7 -77 -10 -20 -3 -51 -7 -68
-10 -18 -2 -49 -7 -69 -10 -20 -3 -51 -7 -70 -10 -19 -2 -52 -6 -74 -9 -82
-13 -171 -26 -215 -31 -25 -3 -72 -10 -105 -15 -33 -5 -82 -12 -110 -16 -77
-10 -78 -10 -108 -23 -16 -6 -32 -11 -36 -11 -5 0 -30 -19 -56 -42 -49 -43
-95 -123 -95 -166 0 -35 -15 -18 -18 20 -2 18 -4 42 -6 53 -2 11 -7 45 -11 75
-4 30 -9 66 -11 80 -3 14 -8 41 -10 60 -14 94 -56 285 -83 375 -17 54 -28 101
-26 103 4 4 105 13 178 16 15 0 27 3 27 6 0 3 10 5 23 6 25 0 120 13 220 29
17 3 50 8 73 10 22 2 54 6 70 9 51 8 200 29 294 41 14 2 39 5 55 8 17 3 53 8
80 12 28 3 61 8 75 10 62 9 178 26 210 30 19 2 51 6 70 9 19 3 58 8 85 12 28
4 61 9 75 11 14 2 41 5 60 7 19 2 49 6 65 9 17 4 46 9 65 11 34 4 104 13 165
21 17 3 39 6 50 9 11 2 43 7 70 10 92 12 130 17 160 22 17 3 47 7 67 9 20 2
45 6 55 8 10 3 47 9 83 12 36 4 74 9 85 11 10 2 37 6 60 9 52 8 81 12 130 19
22 4 58 8 80 11 22 3 51 7 64 10 13 2 49 7 79 10 31 3 63 7 71 9 9 3 39 8 66
11 28 4 64 9 80 11 17 3 46 7 65 9 19 3 49 7 65 10 17 2 55 7 85 10 30 4 87
12 125 19 85 14 295 19 295 6z"/>
<path d="M1235 8039 c-4 -5 -10 -7 -15 -4 -5 3 -50 -1 -102 -10 -51 -8 -113
-17 -138 -20 -25 -3 -58 -8 -75 -10 -50 -6 -116 -15 -144 -19 -14 -3 -46 -8
-71 -11 -25 -3 -74 -11 -110 -16 -36 -6 -78 -12 -95 -13 -50 -5 -98 -18 -122
-33 -54 -36 -80 -122 -55 -183 34 -83 113 -111 241 -86 13 3 49 8 80 11 31 4
63 8 71 10 17 5 76 13 135 20 22 2 51 6 65 9 14 2 48 7 75 11 28 3 75 10 105
15 61 10 134 20 195 26 123 13 187 67 187 157 0 95 -59 151 -159 154 -35 1
-65 -3 -68 -8z"/>
<path d="M2836 4933 c-1 -1 -22 -5 -46 -8 -25 -2 -61 -7 -80 -10 -19 -3 -48
-7 -65 -10 -92 -12 -122 -17 -145 -21 -14 -3 -45 -7 -70 -9 -25 -3 -56 -7 -70
-10 -14 -2 -43 -7 -65 -10 -22 -2 -53 -7 -70 -10 -16 -3 -50 -7 -75 -11 -25
-3 -56 -7 -70 -9 -14 -2 -50 -7 -80 -10 -30 -4 -73 -10 -95 -15 -22 -4 -47 -8
-55 -8 -15 0 -75 -8 -129 -16 -14 -3 -42 -7 -61 -10 -19 -2 -57 -8 -85 -12
-27 -4 -61 -8 -75 -10 -14 -1 -25 -3 -25 -4 0 0 -16 -3 -35 -5 -19 -2 -48 -6
-64 -9 -37 -7 -144 -19 -173 -20 -13 -1 -23 -3 -23 -6 0 -4 -10 -6 -22 -6 -26
-1 -115 -13 -138 -19 -8 -2 -40 -6 -71 -10 -31 -3 -66 -7 -77 -10 -11 -2 -49
-6 -83 -10 -35 -4 -66 -8 -70 -11 -4 -2 -30 -6 -58 -9 -49 -5 -154 -19 -211
-29 -14 -2 -47 -7 -75 -11 -55 -7 -90 -26 -120 -64 -37 -48 -37 -128 0 -177
24 -32 97 -79 107 -69 2 3 33 7 69 10 66 6 92 9 144 19 17 3 53 7 80 11 28 3
59 7 70 9 11 2 42 7 68 10 27 4 58 9 69 11 11 2 47 7 81 10 34 3 69 8 77 10 8
2 35 7 60 10 25 3 56 8 70 10 14 3 48 7 75 10 28 2 59 6 70 9 11 2 41 6 66 10
25 4 57 9 70 11 25 4 98 13 159 20 19 3 45 7 57 10 20 5 78 12 158 20 17 2 30
4 30 5 0 1 11 3 25 5 40 4 123 15 150 20 46 9 85 14 140 20 30 3 66 8 80 10
54 8 116 18 135 21 11 2 45 7 75 10 30 3 57 7 60 9 3 2 39 6 80 10 41 4 77 8
80 10 3 2 30 6 60 10 30 4 66 9 80 11 14 3 39 6 55 8 72 9 108 17 128 28 107
57 104 224 -5 271 -32 14 -131 21 -142 10z"/>
<path d="M2258 3914 c-3 -2 -31 -6 -63 -9 -32 -4 -61 -8 -64 -10 -3 -1 -35 -6
-71 -10 -36 -4 -74 -9 -85 -12 -11 -2 -40 -6 -65 -9 -78 -9 -105 -13 -105 -14
0 -3 -38 -8 -105 -15 -30 -3 -66 -8 -80 -10 -14 -3 -45 -8 -70 -11 -25 -3 -52
-7 -60 -9 -8 -3 -42 -7 -74 -11 -33 -3 -69 -8 -80 -10 -19 -3 -42 -7 -136 -20
-20 -2 -46 -6 -60 -9 -13 -2 -46 -7 -74 -10 -28 -2 -62 -7 -75 -10 -14 -2 -45
-7 -70 -10 -25 -3 -57 -7 -70 -10 -14 -2 -47 -7 -75 -10 -49 -5 -78 -9 -141
-20 -16 -3 -50 -8 -75 -11 -25 -3 -58 -7 -75 -9 -16 -2 -30 -4 -30 -5 0 -1
-11 -3 -25 -4 -14 -2 -45 -6 -70 -9 -113 -17 -136 -20 -157 -21 -13 0 -23 -3
-23 -6 0 -3 -14 -6 -30 -6 -46 -2 -98 -43 -116 -91 -9 -23 -13 -46 -10 -52 4
-5 2 -12 -3 -15 -11 -7 13 -62 43 -94 43 -48 94 -57 211 -38 17 2 66 10 110
16 44 6 96 13 115 16 43 7 80 12 144 20 27 3 57 7 66 9 9 2 41 6 70 10 29 4
62 8 73 11 11 2 43 6 71 9 28 3 58 8 66 10 9 3 40 7 70 10 30 3 66 7 80 9 14
2 41 6 60 9 19 3 55 8 80 12 25 3 56 8 70 11 14 2 48 7 75 9 28 3 57 7 65 10
22 6 120 18 162 19 21 1 38 4 38 7 0 3 6 6 13 6 16 0 106 12 133 17 12 2 45 7
75 11 30 3 68 9 84 11 17 3 44 7 60 9 101 10 284 41 315 53 29 12 70 56 70 76
0 8 4 17 8 20 15 9 3 87 -18 122 -12 19 -36 42 -53 50 -28 15 -110 27 -119 18z"/>
<path d="M2445 2989 c-87 -14 -149 -22 -177 -23 -16 -1 -28 -5 -28 -9 0 -5 -4
-6 -9 -3 -5 3 -32 2 -60 -4 -28 -5 -79 -12 -113 -16 -63 -7 -93 -11 -93 -14 0
-1 -16 -3 -35 -4 -19 -2 -55 -6 -80 -10 -121 -19 -181 -28 -210 -31 -37 -4
-172 -23 -210 -30 -8 -1 -44 -6 -80 -11 -36 -4 -67 -8 -70 -9 -3 -1 -32 -5
-65 -9 -33 -4 -76 -17 -96 -28 -103 -57 -97 -211 10 -268 25 -13 114 -16 161
-5 14 3 39 8 55 10 69 8 133 17 185 25 30 5 78 12 105 15 28 4 66 9 85 12 19
2 46 6 60 8 75 9 131 17 183 26 31 6 62 7 67 4 6 -3 10 -3 10 2 0 4 12 9 28 9
15 1 41 4 57 7 17 3 53 9 80 12 28 4 61 8 75 10 14 2 45 7 70 10 25 3 56 8 70
10 14 2 45 7 70 10 94 12 141 42 166 105 20 50 5 127 -31 158 -51 44 -95 54
-180 41z"/>
<path d="M8191 2499 c-106 -20 -210 -104 -258 -209 -20 -43 -25 -72 -26 -135
-2 -154 69 -267 211 -337 39 -19 63 -23 142 -23 83 0 103 4 153 27 183 86 259
302 170 483 -71 146 -230 225 -392 194z"/>
<path d="M5365 2103 c-48 -10 -115 -35 -115 -44 0 -5 -6 -9 -13 -9 -18 0 -105
-87 -124 -124 -47 -90 -56 -211 -22 -301 11 -30 27 -62 35 -70 9 -8 13 -15 9
-15 -3 0 9 -15 27 -33 82 -83 164 -117 271 -112 62 2 105 8 115 15 1 2 5 3 10
4 4 0 28 13 53 28 79 47 149 140 165 219 8 43 9 125 2 164 -23 116 -126 230
-243 267 -33 11 -138 17 -170 11z"/>
</g>
</svg>
